<mxfile host="app.diagrams.net" modified="2020-03-18T14:08:06.989Z" agent="Mozilla/5.0 (Windows NT 10.0; Win64; x64) AppleWebKit/537.36 (KHTML, like Gecko) Chrome/80.0.3987.132 Safari/537.36 OPR/67.0.3575.79" etag="XOPIvQcGgV9X0UKtTYfY" version="12.8.5" type="github">
  <diagram id="6D5kMNfqTdvPrnVn8kyp" name="Page-1">
    <mxGraphModel dx="1382" dy="764" grid="1" gridSize="10" guides="1" tooltips="1" connect="1" arrows="1" fold="1" page="1" pageScale="1" pageWidth="850" pageHeight="1100" math="0" shadow="0">
      <root>
        <mxCell id="0" />
        <mxCell id="1" parent="0" />
        <mxCell id="dtbXjWBQUjdHqagM6ke0-5" style="edgeStyle=orthogonalEdgeStyle;rounded=0;orthogonalLoop=1;jettySize=auto;html=1;exitX=0.5;exitY=1;exitDx=0;exitDy=0;exitPerimeter=0;entryX=0.57;entryY=0;entryDx=0;entryDy=0;entryPerimeter=0;" parent="1" source="dtbXjWBQUjdHqagM6ke0-1" target="dtbXjWBQUjdHqagM6ke0-2" edge="1">
          <mxGeometry relative="1" as="geometry" />
        </mxCell>
        <mxCell id="dtbXjWBQUjdHqagM6ke0-15" style="edgeStyle=orthogonalEdgeStyle;rounded=0;orthogonalLoop=1;jettySize=auto;html=1;exitX=0.25;exitY=1;exitDx=0;exitDy=0;exitPerimeter=0;entryX=0.5;entryY=0;entryDx=0;entryDy=0;entryPerimeter=0;" parent="1" source="dtbXjWBQUjdHqagM6ke0-1" target="dtbXjWBQUjdHqagM6ke0-14" edge="1">
          <mxGeometry relative="1" as="geometry" />
        </mxCell>
        <mxCell id="dtbXjWBQUjdHqagM6ke0-16" style="edgeStyle=orthogonalEdgeStyle;rounded=0;orthogonalLoop=1;jettySize=auto;html=1;exitX=0;exitY=0.5;exitDx=0;exitDy=0;exitPerimeter=0;" parent="1" source="dtbXjWBQUjdHqagM6ke0-1" target="dtbXjWBQUjdHqagM6ke0-13" edge="1">
          <mxGeometry relative="1" as="geometry" />
        </mxCell>
        <mxCell id="dtbXjWBQUjdHqagM6ke0-1" value="queue" style="verticalLabelPosition=bottom;html=1;verticalAlign=top;align=center;strokeColor=none;fillColor=#00BEF2;shape=mxgraph.azure.storage_queue;" parent="1" vertex="1">
          <mxGeometry x="400" y="300" width="50" height="45" as="geometry" />
        </mxCell>
        <mxCell id="dtbXjWBQUjdHqagM6ke0-9" style="edgeStyle=orthogonalEdgeStyle;rounded=0;orthogonalLoop=1;jettySize=auto;html=1;entryX=1;entryY=0.5;entryDx=0;entryDy=0;entryPerimeter=0;fillColor=#f8cecc;strokeColor=#b85450;" parent="1" source="dtbXjWBQUjdHqagM6ke0-2" target="dtbXjWBQUjdHqagM6ke0-7" edge="1">
          <mxGeometry relative="1" as="geometry" />
        </mxCell>
        <mxCell id="dtbXjWBQUjdHqagM6ke0-12" style="edgeStyle=orthogonalEdgeStyle;rounded=0;orthogonalLoop=1;jettySize=auto;html=1;entryX=0.5;entryY=0;entryDx=0;entryDy=0;entryPerimeter=0;" parent="1" source="dtbXjWBQUjdHqagM6ke0-2" target="dtbXjWBQUjdHqagM6ke0-11" edge="1">
          <mxGeometry relative="1" as="geometry" />
        </mxCell>
        <mxCell id="dtbXjWBQUjdHqagM6ke0-2" value="combiqParser (n instances)" style="verticalLabelPosition=bottom;html=1;verticalAlign=top;align=center;strokeColor=none;fillColor=#00BEF2;shape=mxgraph.azure.content_delivery_network;" parent="1" vertex="1">
          <mxGeometry x="650" y="430" width="50" height="32.5" as="geometry" />
        </mxCell>
        <mxCell id="NFxEOKuWs_z1jlIzPeHb-7" style="edgeStyle=orthogonalEdgeStyle;rounded=0;orthogonalLoop=1;jettySize=auto;html=1;entryX=0.57;entryY=0;entryDx=0;entryDy=0;entryPerimeter=0;" edge="1" parent="1" source="dtbXjWBQUjdHqagM6ke0-3" target="NFxEOKuWs_z1jlIzPeHb-3">
          <mxGeometry relative="1" as="geometry" />
        </mxCell>
        <mxCell id="dtbXjWBQUjdHqagM6ke0-3" value="combiqHttpDispatcher" style="verticalLabelPosition=bottom;html=1;verticalAlign=top;align=center;strokeColor=none;fillColor=#00BEF2;shape=mxgraph.azure.content_delivery_network;" parent="1" vertex="1">
          <mxGeometry x="403" y="50" width="50" height="32.5" as="geometry" />
        </mxCell>
        <mxCell id="dtbXjWBQUjdHqagM6ke0-10" style="edgeStyle=orthogonalEdgeStyle;rounded=0;orthogonalLoop=1;jettySize=auto;html=1;exitX=0.5;exitY=1;exitDx=0;exitDy=0;exitPerimeter=0;entryX=0.57;entryY=0;entryDx=0;entryDy=0;entryPerimeter=0;" parent="1" source="dtbXjWBQUjdHqagM6ke0-7" target="dtbXjWBQUjdHqagM6ke0-8" edge="1">
          <mxGeometry relative="1" as="geometry" />
        </mxCell>
        <mxCell id="dtbXjWBQUjdHqagM6ke0-7" value="queue-poison&lt;br&gt;" style="verticalLabelPosition=bottom;html=1;verticalAlign=top;align=center;strokeColor=none;fillColor=#00BEF2;shape=mxgraph.azure.storage_queue;" parent="1" vertex="1">
          <mxGeometry x="393" y="452.5" width="50" height="45" as="geometry" />
        </mxCell>
        <mxCell id="dtbXjWBQUjdHqagM6ke0-8" value="poisonHandler" style="verticalLabelPosition=bottom;html=1;verticalAlign=top;align=center;strokeColor=none;fillColor=#00BEF2;shape=mxgraph.azure.content_delivery_network;" parent="1" vertex="1">
          <mxGeometry x="390" y="590" width="50" height="32.5" as="geometry" />
        </mxCell>
        <mxCell id="dtbXjWBQUjdHqagM6ke0-11" value="" style="verticalLabelPosition=bottom;html=1;verticalAlign=top;align=center;strokeColor=none;fillColor=#00BEF2;shape=mxgraph.azure.virtual_network;pointerEvents=1;" parent="1" vertex="1">
          <mxGeometry x="650" y="546" width="50" height="27.500000000000004" as="geometry" />
        </mxCell>
        <mxCell id="dtbXjWBQUjdHqagM6ke0-18" style="edgeStyle=orthogonalEdgeStyle;rounded=0;orthogonalLoop=1;jettySize=auto;html=1;exitX=0.5;exitY=1;exitDx=0;exitDy=0;exitPerimeter=0;entryX=0.25;entryY=1;entryDx=0;entryDy=0;entryPerimeter=0;" parent="1" source="dtbXjWBQUjdHqagM6ke0-13" target="dtbXjWBQUjdHqagM6ke0-7" edge="1">
          <mxGeometry relative="1" as="geometry" />
        </mxCell>
        <mxCell id="dtbXjWBQUjdHqagM6ke0-13" value="Developer 1" style="verticalLabelPosition=bottom;html=1;verticalAlign=top;align=center;strokeColor=none;fillColor=#00BEF2;shape=mxgraph.azure.laptop;pointerEvents=1;" parent="1" vertex="1">
          <mxGeometry x="150" y="422.5" width="50" height="30" as="geometry" />
        </mxCell>
        <mxCell id="dtbXjWBQUjdHqagM6ke0-17" style="edgeStyle=orthogonalEdgeStyle;rounded=0;orthogonalLoop=1;jettySize=auto;html=1;exitX=0.5;exitY=1;exitDx=0;exitDy=0;exitPerimeter=0;entryX=0;entryY=0.5;entryDx=0;entryDy=0;entryPerimeter=0;" parent="1" source="dtbXjWBQUjdHqagM6ke0-14" target="dtbXjWBQUjdHqagM6ke0-7" edge="1">
          <mxGeometry relative="1" as="geometry" />
        </mxCell>
        <mxCell id="dtbXjWBQUjdHqagM6ke0-14" value="Developer n" style="verticalLabelPosition=bottom;html=1;verticalAlign=top;align=center;strokeColor=none;fillColor=#00BEF2;shape=mxgraph.azure.laptop;pointerEvents=1;" parent="1" vertex="1">
          <mxGeometry x="240" y="422.5" width="50" height="30" as="geometry" />
        </mxCell>
        <mxCell id="NFxEOKuWs_z1jlIzPeHb-1" value="ArchiveData" style="verticalLabelPosition=bottom;html=1;verticalAlign=top;align=center;strokeColor=none;fillColor=#00BEF2;shape=mxgraph.azure.storage;pointerEvents=1;" vertex="1" parent="1">
          <mxGeometry x="600" y="206" width="50" height="40" as="geometry" />
        </mxCell>
        <mxCell id="NFxEOKuWs_z1jlIzPeHb-5" style="edgeStyle=orthogonalEdgeStyle;rounded=0;orthogonalLoop=1;jettySize=auto;html=1;entryX=0;entryY=0.5;entryDx=0;entryDy=0;entryPerimeter=0;" edge="1" parent="1" source="NFxEOKuWs_z1jlIzPeHb-3" target="NFxEOKuWs_z1jlIzPeHb-1">
          <mxGeometry relative="1" as="geometry" />
        </mxCell>
        <mxCell id="NFxEOKuWs_z1jlIzPeHb-6" style="edgeStyle=orthogonalEdgeStyle;rounded=0;orthogonalLoop=1;jettySize=auto;html=1;entryX=0.5;entryY=0;entryDx=0;entryDy=0;entryPerimeter=0;" edge="1" parent="1" source="NFxEOKuWs_z1jlIzPeHb-3" target="dtbXjWBQUjdHqagM6ke0-1">
          <mxGeometry relative="1" as="geometry" />
        </mxCell>
        <mxCell id="NFxEOKuWs_z1jlIzPeHb-3" value="MessageDelivery" style="verticalLabelPosition=bottom;html=1;verticalAlign=top;align=center;strokeColor=none;fillColor=#00BEF2;shape=mxgraph.azure.content_delivery_network;" vertex="1" parent="1">
          <mxGeometry x="400" y="173.5" width="50" height="32.5" as="geometry" />
        </mxCell>
      </root>
    </mxGraphModel>
  </diagram>
</mxfile>
